<?xml version="1.0" encoding="utf-8"?>
<!-- Generator: Adobe Illustrator 22.1.0, SVG Export Plug-In . SVG Version: 6.00 Build 0)  -->
<svg version="1.1" id="_x35_697373c-b41a-41d7-99c7-222dbdce0794"
	 xmlns="http://www.w3.org/2000/svg" xmlns:xlink="http://www.w3.org/1999/xlink" x="0px" y="0px" viewBox="0 0 1132.9 839.1"
	 style="enable-background:new 0 0 1132.9 839.1;" xml:space="preserve">
<style type="text/css">
	.st0{opacity:0.1;fill:#6C63FF;enable-background:new    ;}
	.st1{fill:url(#SVGID_1_);}
	.st2{fill:url(#SVGID_2_);}
	.st3{fill:#F6BAC2;}
	.st4{fill:#B77983;}
	.st5{opacity:5.000000e-02;enable-background:new    ;}
	.st6{fill:#D39999;}
	.st7{fill:none;}
	.st8{fill:#4B4442;}
	.st9{fill:#8499F0;}
	.st10{opacity:0.1;fill:#FFFFFF;enable-background:new    ;}
	.st11{fill:#7E646B;}
	.st12{opacity:5.000000e-02;}
	.st13{fill:#B7B6CC;}
	.st14{opacity:0.5;}
	.st15{fill:url(#SVGID_3_);}
	.st16{fill:#F9FAFB;}
	.st17{fill:#F7B643;}
	.st18{opacity:0.5;fill:#F7B643;enable-background:new    ;}
	.st19{opacity:0.3;fill:#F7B643;enable-background:new    ;}
	.st20{fill:url(#SVGID_4_);}
	.st21{fill:#F97878;}
	.st22{opacity:0.5;fill:#F97878;enable-background:new    ;}
	.st23{opacity:0.3;fill:#F97878;enable-background:new    ;}
	.st24{fill:url(#SVGID_5_);}
	.st25{fill:#73B53B;}
	.st26{opacity:0.5;fill:#73B53B;enable-background:new    ;}
	.st27{opacity:0.3;fill:#73B53B;enable-background:new    ;}
	.st28{fill:url(#SVGID_6_);}
	.st29{fill:#FFFFFF;}
	.st30{fill:#6C63FF;}
	.st31{opacity:0.5;fill:#6C63FF;enable-background:new    ;}
	.st32{opacity:0.3;fill:#6C63FF;enable-background:new    ;}
	.st33{fill:#E6ECF8;}
	.st34{opacity:0.1;enable-background:new    ;}
	.st35{fill:url(#SVGID_7_);}
	.st36{fill:#F6F7F9;}
	.st37{opacity:0.2;}
	.st38{fill:url(#SVGID_8_);}
	.st39{fill:#AE6E79;}
	.st40{fill:#BEBED0;}
	.st41{fill:#5C5C8E;}
	.st42{fill:#42383C;}
	.st43{fill:#E6E8EE;}
	.st44{fill:none;stroke:#565987;stroke-miterlimit:10;}
	.st45{fill:#FFD037;}
	.st46{fill:#A8A8A8;}
	.st47{opacity:0.2;enable-background:new    ;}
</style>
<title>upload</title>
<path className="st0" d="M481.3,56.3c-37.2-15.1-76.5-27.8-116.6-26.2c-59,2.3-115.5,37.8-143.3,89.8c-23.5,44.1-26.4,95.8-36.6,144.8
	c-12.5,60.3-36.4,117.6-61.9,173.7c-13.7,30.1-28.2,60.9-30.4,93.9c-3.1,45.8,18.8,91.5,53.1,122s80,46.6,125.8,50.1
	c24.4,1.9,49.8,0.1,71.5-11.2c22.9-12,39.6-33.7,62.6-45.5c21.3-11,46.2-12.5,70.1-11.1c31.3,1.9,62.2,8.4,91.6,19.5
	c33.4,12.6,64.5,30.7,97.9,43.5s70.6,19.8,104.7,9.2c32-10,57.3-34.2,80.2-58.8c37.5-40.3,71.6-83.5,102.2-129.3
	c20.6-30.8,39.8-63.4,48.9-99.3c17.4-68.7-6.6-146.3-59.7-193.2c-44-38.9-103.1-55.8-160.9-66c-52.7-9.3-113.7-9.9-162.2-34.3
	C572,104.7,529.9,76.1,481.3,56.3z"/>
<linearGradient id="SVGID_1_" gradientUnits="userSpaceOnUse" x1="819.8765" y1="243.3074" x2="819.8765" y2="709.6792" gradientTransform="matrix(1 0 0 -1 -33.54 811.57)">
	<stop  offset="0" style="stop-color:#808080;stop-opacity:0.25"/>
	<stop  offset="0.54" style="stop-color:#808080;stop-opacity:0.12"/>
	<stop  offset="1" style="stop-color:#808080;stop-opacity:0.1"/>
</linearGradient>
<path className="st1" d="M871.2,120.3c-14.3,0.6-15,37.4-14.1,39.1c0.9,1.6-3.2,18.3-3.2,18.3s-6.5,25.2-5.7,29.9s-3.5,7.8-3.5,7.8
	c-6.3,2.5-14.3,10.6-16.4,12.8l-0.5,0.6c0,0-6.1,4-7.2,5.6s-4,0.3-4,0.3s-8.3-0.8-9.4-0.5c-0.7,0.2-1.9-1.1-2.6-2
	c-0.3-0.4-0.5-0.7-0.5-0.7l-0.3-7.4c-0.3-0.2-0.6-0.4-1-0.6c0.2-0.8,0.4-1.7,0.6-2.6c3.7-1.8,6.9-4.6,9.1-8.2
	c0.2-0.4,0.5-0.8,0.7-1.2c0.6,0.4,1.2,0.6,1.9,0.5c0.3,0,0.6,0,0.9-0.1c0.9-0.3,1.8-0.7,2.6-1.3c2.1-1.4,3.7-3.3,4.8-5.6
	c0.2-0.4,0.3-0.9,0.5-1.3c-0.2,0.3-0.3,0.5-0.5,0.7c0.8-2.1,0.6-4.5-0.5-6.5c-0.8-1.3-2-2.3-2.5-3.7c-0.8-2.4,0.8-4.9,1.7-7.3
	c0.9-2.1,1.3-4.5,0.9-6.8c-0.4-2.3-1.7-4.4-3.7-5.8c-3.9-2.6-9.3-1.1-13.8-2.4c-1.6-0.5-3.2-1.2-4.8-1.9c-2.3-1-4.8-1.8-7.3-2.3
	c-2.5-0.5-5.5-0.5-7,1.4c-0.4,0.6-0.8,1.3-1.1,1.9c-1,1.6-2.6,2.8-4.5,3.2c-0.9,0.2-1.8,0.3-2.8,0.3c0.1-0.4,0.1-0.8,0-1.1
	c-1.2-3.8,2.2-6.6,6.5-8.3c4.3-1.7,20.8-14.6,22.7-17.7c1.9-3.1,15.3-12.7,15.3-12.7s20-5.7,26.6-26.3s-31.4,14.4-35.2,15.4
	s-9.3,5-9.3,5l-24.3,14.1c-4.6,2.6-9,5.6-13.1,9.1c-5.9,5.1-9.6,13.7-9.6,13.7s-2.3,3.8-5.7,9.3c-1.9,3.1-4.4,5.8-7.4,7.9l0.1-0.2
	c-0.3,0.3-8.6,10.9-9.4,15.5c-0.7,4.6-4.2,23.5-4.2,23.5s-3,14.8-5.1,17.7c0,0-1.7,8.5-2.7,9.6s-5,13.2-4.3,14.4
	c0,0-3.8,8.3-3.2,11.5l-6.9,16.5c0,0-3.7,8.2-3.5,12.9c0.1,2.3,0.2,5,0.3,7.2c0,0.4,0,0.7,0,1l0,0c0,0.4,0,0.7,0,1
	c-0.4,0.6-1.3,2.2-2.3,4.1c-1.4,2.8-2.9,6.3-2.8,8.4c0.2,3.8,0.2,12.9-1.6,16.3l-0.5-0.2c-0.6,1-1,2.1-1,3.3l0.1,0.1
	c0,0.3-0.1,0.6-0.1,0.9c-0.4,3.8,0.2,9.2-0.8,10.3c-1.3,1.6-0.7,37.5-0.7,37.5s-2.2,22.5,2.2,36.7l-0.3,11.1c0,0-0.2,10.5,0.3,12
	s0.7,12.1,0.7,12.1l2.5,17.8c0,0-3.3,27.5-0.5,34.3c1.6,3.7,2.7,7.7,3,11.8c1.4,0.8,3,1.4,4.6,1.8v1l-0.7,16.7v0.9
	c0,0-0.1,0.4-0.1,1.2l0,0c0,0.1,0,0.3,0,0.4c0,0,0,0.1,0,0.1c0,0.1,0,0.2,0,0.3c0,0.1,0,0.2,0,0.3c0,0.1,0,0.2,0,0.2v0.2
	c0,0.4,0,0.8,0,1.3l0,0c0,0.2,0,0.4,0,0.6s0,0.1,0,0.2v0.3c0,0.1,0,0.2,0,0.3v0.2c0,0.2,0,0.3,0.1,0.5c0,0,0,0.1,0,0.1
	c0,0.2,0.1,0.4,0.1,0.5l0,0c0,0.2,0.1,0.4,0.1,0.5c0,0,0,0,0,0.1l0,0c0,0.1,0,0.2,0.1,0.3c0,0,0,0.1,0,0.1c0,0.1,0.1,0.2,0.1,0.3
	v0.1c0.1,0.3,0.2,0.6,0.3,0.8c0,0,0,0.1,0,0.1c0,0.1,0.1,0.2,0.1,0.3l0.1,0.1l0.1,0.3l0.1,0.2l0.1,0.3l0.1,0.2
	c0,0.1,0.1,0.2,0.1,0.2s0.1,0.1,0.1,0.2l0.2,0.2l0.1,0.2l0.2,0.2l0.1,0.2l0.2,0.2l0.1,0.1l0.2,0.2l0.1,0.1l0.3,0.3
	c0,0,0.1,0.1,0.1,0.1c0.1,0.1,0.2,0.2,0.3,0.2l0.2,0.1l0.2,0.2l0.2,0.1l0.2,0.2l0.2,0.1l0.2,0.1l0.2,0.1l0.2,0.1l0.2,0.1l0.3,0.1
	l0.3,0.1l0.3,0.1l0.3,0.1l0.3,0.1l0.3,0.1l0.3,0.1l0.5,0.1l0.4,0.1l0.3,0.1l0.3,0.1h0.3l0.3,0h0.3h0.3h0.4h0.4h0.4h1.6h0.5h0.4
	l0.5,0h0.3l0.9-0.1c0,0,11.3,1.7,11.7-2.8c0-0.2,0-0.5,0-0.7v-0.6c0-0.1,0-0.1,0-0.2c0-0.2,0-0.5,0-0.7v-0.1c0-0.3,0-0.5,0-0.8v-0.5
	c0-0.4,0-0.9,0-1.3c0-0.2,0-0.3,0-0.5c0-0.5,0-0.9,0-1.4V556c0-0.1,0-0.2,0-0.3c-0.1-2.2-0.2-4.3-0.3-5.4c0-0.6-0.1-1-0.1-1
	s-3.9-5.8-3.2-8s0.5-9.6,0.5-9.6s-1.5-3.5-2.5-6.7c-0.1-0.2-0.2-0.5-0.2-0.7c0.8-1,1.6-2,2.4-3c1.4-7.7,0.4-15.7-2.8-22.8
	c-0.4-0.3-0.6-0.7-0.6-1.2c0,0,0-0.1,0-0.1l1.9-23.6l-1.2-13.7c0,0-0.8-9.4,1-13.4l3.7-35.6l5.2-20.7c0,0,1.7-0.8,3,3.1
	s4.6,21.5,4.6,21.5l8,29.1c0,0,1.3,10.4,2.5,11.8s1.2,7.9,1.2,7.9s2.5,5.2,2.2,7.4s0,8.4,0.8,10.5s1.2,17,1.2,17
	c-1,4.9-0.8,9.9,0.3,14.7c2,7.4,0.8,16.8,0.8,16.8c0.2,0.3,0.4,0.6,0.7,0.9c-0.1,0.2-0.2,0.4-0.3,0.6c-0.5,1.3-0.9,2.3-0.9,2.3
	s-0.1,7.4,0.5,9.6s-3.2,8-3.2,8s0,0.4-0.1,1c-0.1,1.2-0.2,3.2-0.3,5.4c0,0.1,0,0.2,0,0.3v0.1v1.3c0,0.2,0,0.3,0,0.5
	c0,0.5,0,0.9,0,1.3c0,0.1,0,0.2,0,0.3s0,0.1,0,0.2v0.1c0,0.3,0,0.5,0,0.8v0.1c0,0.2,0,0.5,0,0.7c0,0.1,0,0.1,0,0.2
	c0,0.2,0,0.4,0,0.6s0,0.5,0,0.7c0.4,4.5,11.7,2.8,11.7,2.8l0.9,0.1h0.3h0.5h0.4h0.5h1.6h0.4h0.4h0.4h0.3h0.3l0.3-0.1l0.3,0l0.3-0.1
	l0.3-0.1l0.4-0.1l0.5-0.1l0.3-0.1l0.3-0.1c0.1,0,0.2-0.1,0.3-0.1l0.3-0.1l0.3-0.1l0.3-0.1l0.3-0.1l0.2-0.1l0.2-0.1l0.2-0.1l0.2-0.1
	l0.2-0.1l0.2-0.2c0.1,0,0.1-0.1,0.2-0.1c0.1-0.1,0.2-0.1,0.2-0.2l0.2-0.1l0.3-0.2l0.1-0.1l0.3-0.3l0.1-0.1l0.2-0.2l0.1-0.2
	c0.1-0.1,0.1-0.1,0.2-0.2l0.1-0.2l0.2-0.2l0.1-0.2l0.2-0.2c0-0.1,0.1-0.1,0.1-0.2c0-0.1,0.1-0.2,0.1-0.2l0.1-0.2
	c0-0.1,0.1-0.2,0.1-0.3c0,0,0.1-0.1,0.1-0.2c0-0.1,0.1-0.2,0.1-0.3l0.1-0.1c0-0.1,0.1-0.2,0.1-0.3v-0.1c0.1-0.3,0.2-0.6,0.3-0.8
	v-0.1c0-0.1,0.1-0.2,0.1-0.3c0,0,0-0.1,0-0.1c0-0.1,0-0.2,0.1-0.3v0c0,0,0,0,0-0.1c0-0.2,0.1-0.4,0.1-0.5l0,0c0-0.2,0.1-0.4,0.1-0.5
	v-0.1c0-0.2,0.1-0.3,0.1-0.5s0-0.1,0-0.2s0-0.2,0-0.3s0-0.2,0-0.3s0-0.1,0-0.2s0-0.4,0-0.6l0,0c0-0.5,0-0.9,0-1.3V555
	c0-0.1,0-0.2,0-0.3c0-0.1,0-0.2,0-0.3c0,0,0-0.1,0-0.1c0-0.1,0-0.3,0-0.4l0,0c-0.1-0.7-0.1-1.2-0.1-1.2v-0.9l-0.6-16.2v-1
	c0.9-0.5,1.9-1.1,2.9-1.8c0,0-0.2-9.2,2.5-12.9s-1.3-13.4-1.3-13.4l-1.7-34.8l0.7-16c-1.3-2.4-2-5-2-7.8c-0.3-3.5-1.2-6.9-2.7-10
	c0,0-1.7-5.5,0.3-7.1s-2.2-37-2.2-37s1-25.9-0.9-41.2v-0.3l0.5-0.2c-0.2-1.2-0.3-2.4-0.5-3.5l-0.6,0.2c-0.2-1.4-0.6-2.7-1-4
	l-2.7-12.2c0,0-0.1-0.6-0.1-1.6c-0.1-1.1-0.2-2.6-0.2-3.9c0-0.6,0.1-1.1,0.2-1.6l-0.1-0.1c0-0.3,0.1-0.6,0.1-0.9l-0.6-0.5
	c0,0-0.1-0.5-0.1-1.4c-0.1-1.9-0.2-5.1,0.7-6.9c1.3-2.7,15-12.8,15-12.8l7.7-15.3c0,0,7.6-10.8,13.5-12.9s23.9-14.1,23.9-14.1
	s6.3-6.5,6.8-8l0.2-0.3h0.1V252l17-25.5c6.8-5.5,7-17.2,7-17.2l1.8-26.8l-0.6-15.8l0.8-9C870.5,157.7,885.5,119.7,871.2,120.3z
	 M773.8,189.6c-1.8,3.2-2.8,6.9-2.8,10.6c0,0.2,0,0.4,0,0.5s0,0.3,0,0.4c0,3.3,0.8,6.6,2.3,9.6c-0.8,0.8-1.3,1.8-1.7,2.9
	c-0.8-1.1-3.3-4.3-3.4-6.5c-0.2-2.6-2.7-4.4-2.7-4.4s-0.5-4.9,0.2-5.7l0.1-0.1c0,0,0.1-0.1,0.2-0.3l0,0c0.7-1.1,3.1-4.7,5.6-8.8
	c0.4,0.2,0.8,0.3,1.3,0.4l1.5,0.4L773.8,189.6z"/>
<linearGradient id="SVGID_2_" gradientUnits="userSpaceOnUse" x1="855.68" y1="623.31" x2="855.68" y2="625.76" gradientTransform="matrix(1 0 0 -1 -33.54 811.57)">
	<stop  offset="0" style="stop-color:#808080;stop-opacity:0.25"/>
	<stop  offset="0.54" style="stop-color:#808080;stop-opacity:0.12"/>
	<stop  offset="1" style="stop-color:#808080;stop-opacity:0.1"/>
</linearGradient>
<path className="st2" d="M822.3,186.9c0.2-0.3,0.3-0.7,0.4-1.1c-0.4,0.8-0.7,1.6-1,2.5C821.9,187.8,822.1,187.3,822.3,186.9z"/>
<path className="st3" d="M778.3,210.6c0,0-3.1,14.9-8.9,16.9s7,19,7,19l26.5-1.5l0.5-5.5c0,0-5-11.1,3.4-24.5S778.3,210.6,778.3,210.6z"
	/>
<path className="st4" d="M736.7,562.9c-0.4,4.5-11.3,2.8-11.3,2.8c-18.2,2.5-15.2-15.3-15.2-15.3v-0.9l0.6-16.6l0.2-4.6
	c0,0,20-9.1,19.5-7.2c-0.2,0.7,0.2,2.5,0.8,4.3c1,3.1,2.4,6.6,2.4,6.6s0.1,7.3-0.5,9.5s3.1,7.9,3.1,7.9s0,0.4,0.1,1
	C736.8,554.6,736.9,558.8,736.7,562.9z"/>
<path className="st4" d="M771.8,567.7c0,0-11,1.7-11.3-2.8c-0.2-4.2-0.1-8.3,0.2-12.5c0-0.6,0-1,0-1s3.7-5.8,3.1-7.9s-0.5-9.5-0.5-9.5
	s0.4-0.9,0.9-2.3c1.1-2.8,2.7-7.4,2.3-8.7c-0.5-1.9,19.5,7.2,19.5,7.2l0.2,5.2l0.6,16v0.9C786.9,552.4,789.9,570.3,771.8,567.7z"/>
<path className="st3" d="M846.8,111.9c-6.4,20.4-25.7,26.1-25.7,26.1s-12.9,9.6-14.8,12.6s-17.7,15.9-21.9,17.6s-7.4,4.5-6.3,8.3
	c1,3.5-9.9,20.6-11.6,23.1l0,0l-0.2,0.3l-3.5,3.6l-11.7,5.9l-9.5-3.1l-1.2-11.5l5.1-9l0,0l0,0c2.9-2.1,5.4-4.7,7.2-7.8
	c3.3-5.5,5.5-9.2,5.5-9.2s3.6-8.6,9.3-13.6c3.9-3.4,8.2-6.4,12.7-9l23.5-14c0,0,5.3-3.9,9-5C816.5,126.1,853.2,91.5,846.8,111.9z"/>
<path className="st5" d="M751.3,202l15.6-3.1c-0.2,0.2-0.3,0.4-0.3,0.6l0,0l-0.2,0.3l-3.5,3.6l-11.7,5.9l-9.5-3.1l-1.2-11.5l5.1-9l0,0
	c-4.8,10-0.1,17.1-0.1,17.1L751.3,202z"/>
<path className="st5" d="M842.8,253.6c0,0.1-0.1,0.2-0.1,0.3c-0.1,0.4-0.3,0.7-0.6,1l-6.3,3.1l-9.6,1l-5-12.1l3.3-13.3l1.8-2.5l0.5-0.6
	c0.2,2.4,1.2,14.9,1.1,18.7c-0.1,4.2,3,4.5,3,4.5L842.8,253.6z"/>
<path className="st6" d="M842.3,254.6c0,0.1-0.1,0.2-0.1,0.3c-0.5,1.5-6.6,7.9-6.6,7.9s-17.5,12-23.1,14s-13,12.8-13,12.8l-7.4,15.2
	c0,0-13.2,10-14.5,12.7c-0.9,1.8-0.8,5-0.7,6.9c0,0.8,0.1,1.4,0.1,1.4l-3.9,4.1l-3.1,3.2l-4.4,4.6l-7.1-1l-22.2-3.5l-4.3-2.4
	l-23.7-13.3c0,0,0-0.8-0.1-2.1c0-0.6,0-1.2-0.1-1.9c-0.1-2.2-0.2-4.9-0.3-7.1c-0.2-4.7,3.4-12.8,3.4-12.8L718,277
	c-0.6-3.1,3-11.4,3-11.4c-0.6-1.2,3.2-13.1,4.2-14.3s2.6-9.5,2.6-9.5c2-2.9,4.9-17.6,4.9-17.6s3.3-18.6,4-23.3s8.8-15.1,9.1-15.4
	c-5.8,10.6-0.7,18.3-0.7,18.3l5.8-1l15.6-3.1c-0.7,0.5-0.2,5.8-0.2,5.8c1.4,1.1,2.3,2.6,2.6,4.3c0.2,2.4,3,6,3.5,6.6l0.1,0.1
	c0.4-2.3,1.8-4.2,3.8-5.4l3.6,4.8l1.2,5.8c0,0-0.3,0.8-2.4,2.4s0.9,5.8,0.9,5.8c1,1.7,1.3,7.9,1.3,7.9l0,0c2.7-2.3,6.8-2.3,6.8-2.3
	c1.7-1.7,3.1-3.7,4.1-5.9c0.3-1.3,1.6-2.1,2.9-1.8c0.2,0,0.4,0.1,0.5,0.2c1.2-1,2.5-2,3.9-2.7c1.9-1,4.2,1,4.2,1l0.2,7.4
	c0,0,0.2,0.3,0.5,0.7c0.6,0.9,1.8,2.2,2.5,2c1-0.3,9.1,0.5,9.1,0.5s2.8,1.2,3.8-0.3s7-5.5,7-5.5s1.1,14.9,1.1,19.1s3,4.5,3,4.5
	L842.3,254.6z"/>
<path className="st7" d="M842.5,254.6h-0.2C842.6,253.6,842.5,254.6,842.5,254.6z"/>
<circle className="st8" cx="776.7" cy="244.8" r="1.4"/>
<circle className="st8" cx="766.1" cy="265.8" r="1.4"/>
<circle className="st8" cx="745.5" cy="310.6" r="1.4"/>
<circle className="st8" cx="755.2" cy="288" r="1.4"/>
<path className="st5" d="M731.5,525.4c-7.5,8.9-15.6,8.8-20.5,7.5l0.2-4.6c0,0,20-9.1,19.5-7.2C730.5,521.8,730.8,523.5,731.5,525.4z"/>
<path className="st5" d="M786.3,535.5c-12.8,7.4-20.3-1.3-22-3.7c1.1-2.8,2.7-7.4,2.3-8.7c-0.5-1.9,19.5,7.2,19.5,7.2L786.3,535.5z"/>
<path className="st9" d="M791.4,519.9c-2.6,3.7-2.4,12.8-2.4,12.8c-16.5,11.9-25.2-2.6-25.2-2.6s1.1-9.3-0.8-16.7
	c-1.1-4.8-1.2-9.8-0.3-14.6c0,0-0.3-14.8-1.1-16.8s-1.1-8.2-0.8-10.4s-2.1-7.4-2.1-7.4s0-6.4-1.1-7.9s-2.4-11.7-2.4-11.7l-7.7-28.9
	c0,0-3.2-17.5-4.5-21.3s-2.9-3-2.9-3l-4.6,20.7l-3.5,35.3c-1.8,4-1,13.3-1,13.3l1.1,13.6l-1.9,23.4c0,0,0,0.1,0,0.1
	c0,0.5,0.2,0.9,0.6,1.2c3.2,7.1,4.1,15,2.7,22.6c-12.2,17.7-27,8.5-27,8.5c-0.3-4-1.3-8-2.9-11.7c-2.7-6.7,0.5-34,0.5-34l-2.4-17.6
	c0,0-0.2-10.6-0.6-12s-0.3-11.9-0.3-11.9l0.3-11.1c-4.2-14.1-2.1-36.4-2.1-36.4s-0.6-35.6,0.7-37.2c0.9-1.2,0.3-6.4,0.7-10.3
	c0-1.2,0.4-2.3,0.9-3.3l0.2-0.2c2.1-2.6,2.1-12.8,1.9-16.9c-0.1-2.1,1.4-5.6,2.8-8.3c1-1.9,1.9-3.5,2.3-4.1l0.1-0.2
	c0,0,9.1,2.3,33.4,13.8c4.3,2.1,9,3.6,13.8,4.3c2.4,0.3,4.8,0.4,7.2,0.1c3.7-0.4,7.2-1.5,10.3-3.4c1.7-1,3.2-2.2,4.5-3.6
	c-0.3,1-0.1,4.4,0,6.5c0.1,0.9,0.1,1.6,0.1,1.6l2.7,11.9c0.4,1.4,0.8,2.9,1,4.3c0.2,1.1,0.3,2.2,0.5,3.4c1.9,15.2,0.9,40.9,0.9,40.9
	s4,35.1,2.1,36.7s-0.3,7.1-0.3,7.1c1.5,3.1,2.3,6.5,2.6,9.9c0,2.7,0.7,5.3,1.9,7.7l-0.7,15.9l1.7,34.4
	C790.1,506.6,794,516.2,791.4,519.9z"/>
<path className="st5" d="M772.6,461.9c0,0,12.2-7,14.8-3.9S772.6,461.9,772.6,461.9z"/>
<path className="st5" d="M779.9,465.7c0,0-2,1,2.4,2.3S779.9,465.7,779.9,465.7z"/>
<path className="st5" d="M706.5,446.5c-0.4,0.1,10.1,7.1,19.6,1.3C726,447.8,708.8,445.7,706.5,446.5z"/>
<path className="st5" d="M725.6,459.8c0,0-2.9,5.7-8.8,6.5S725.6,459.8,725.6,459.8z"/>
<path className="st5" d="M764.2,472.1c0,0,13.8,22,11.2,27.2S764.2,472.1,764.2,472.1z"/>
<path className="st5" d="M740.8,338.7l-1.4,43.1c0,0,8.5-0.4,10-14.5s2.5-25.8,2.5-25.8L740.8,338.7z"/>
<path className="st9" d="M740.4,337.7l-1.4,43.1c0,0,8.5-0.4,10-14.6s2.5-25.7,2.5-25.7L740.4,337.7z"/>
<path className="st5" d="M723,339.6c0,0-6.7,18.1-22.2,9.3c0-1.2,0.4-2.3,0.9-3.3c4.2,1.8,14,4.4,18-7.4L723,339.6z"/>
<path className="st5" d="M722.6,337.7c0,0-6.7,18.1-22.2,9.3c0-1.2,0.4-2.3,0.9-3.3c4.2,1.8,14,4.4,18-7.4L722.6,337.7z"/>
<path className="st9" d="M722.6,338.7c0,0-6.7,18.1-22.2,9.3c0-1.2,0.4-2.3,0.9-3.3c4.2,1.8,14,4.4,18-7.4L722.6,338.7z"/>
<path className="st5" d="M781.6,354.9c-16.9,8.1-23.2-10.9-23.2-10.9l4,0.1c0.7,12.1,14.1,8.9,18.7,7.4
	C781.2,352.6,781.4,353.7,781.6,354.9z"/>
<path className="st5" d="M782.5,353.5c-16.9,8-23.2-11-23.2-11l4,0.1c0.7,12.1,14.1,8.9,18.7,7.4C782.2,351.1,782.4,352.2,782.5,353.5z"
	/>
<path className="st9" d="M782,353.9c-16.9,8-23.2-11-23.2-11l4,0.1c0.7,12.2,14.1,8.9,18.7,7.4C781.7,351.6,781.9,352.7,782,353.9z"/>
<path className="st10" d="M722.6,338.7c0,0-6.7,18.1-22.2,9.3c0-1.2,0.4-2.3,0.9-3.3c4.2,1.8,14,4.4,18-7.4L722.6,338.7z"/>
<path className="st10" d="M782,353.9c-16.9,8-23.2-11-23.2-11l4,0.1c0.7,12.2,14.1,8.9,18.7,7.4C781.7,351.6,781.9,352.7,782,353.9z"/>
<path className="st5" d="M736.9,559.6c0,1.2,0,2.4-0.1,3.3c-0.4,4.5-11.3,2.8-11.3,2.8c-10,1.4-13.6-3.4-14.8-8c-0.4-1.5-0.6-3-0.5-4.6
	c0-0.9,0.1-1.8,0.2-2.7v-0.9c2.2-0.6,4.5-0.2,6.2,1.3c4.5,3.6,10.3,0.8,10.3,0.8s4.3,0.4,6,1.8c0.9,0.8,2.5-1.1,3.7-3
	c0.1,1.2,0.2,3.4,0.3,5.7C736.8,557.3,736.9,558.5,736.9,559.6z"/>
<path className="st5" d="M719.3,559.3c0,0-3,2.9-8.7-1.6c-0.4-1.5-0.6-3-0.5-4.6C713,555.4,718.3,559.3,719.3,559.3z"/>
<path className="st5" d="M736.9,559.6c-1,0.8-2.4,0.6-3.2-0.4c0,0-0.1-0.1-0.1-0.1c1.2-0.9,2.2-1.9,3.2-3
	C736.8,557.3,736.9,558.5,736.9,559.6z"/>
<path className="st5" d="M760.3,561.6c0,1.2,0,2.4,0.1,3.3c0.4,4.5,11.3,2.8,11.3,2.8c10,1.4,13.6-3.4,14.8-8c0.6-2.4,0.7-4.9,0.4-7.3
	v-0.9c-2.2-0.6-4.5-0.2-6.2,1.3c-4.5,3.6-10.3,0.8-10.3,0.8s-4.3,0.4-6,1.8c-0.9,0.8-2.5-1.1-3.7-3c-0.1,1.2-0.2,3.4-0.3,5.7
	C760.3,559.3,760.3,560.5,760.3,561.6z"/>
<path className="st5" d="M777.9,561.4c0,0,3,2.9,8.7-1.6c0.4-1.5,0.6-3,0.6-4.5C784.2,557.4,778.8,561.4,777.9,561.4z"/>
<path className="st5" d="M760.3,561.6c1,0.8,2.4,0.6,3.2-0.4c0,0,0.1-0.1,0.1-0.1c-1.2-0.9-2.2-1.9-3.2-3
	C760.3,559.3,760.3,560.5,760.3,561.6z"/>
<path className="st5" d="M747.1,254.6c0,0-15.4,42.5-9.5,46.2S747.1,254.6,747.1,254.6z"/>
<path className="st5" d="M758.4,241.5c0,0-2.9,14.1-1.5,15.4S758.4,241.5,758.4,241.5z"/>
<path className="st5" d="M789.5,274.3c0,0-18.9,17.6-17.7,19.1S789.5,274.3,789.5,274.3z"/>
<path className="st5" d="M803.9,235.5c-7.2,2.2-23.9,7.3-24.1,7.3l0.9-3.8c2.7-2.3,6.8-2.3,6.8-2.3c1.7-1.7,3.1-3.7,4.1-5.9
	c0.3-1.3,1.6-2.1,2.9-1.8c0.2,0,0.4,0.1,0.5,0.2c1.2-1,2.5-2,3.9-2.7c1.9-1,4.2,1,4.2,1l0.2,7.4
	C803.4,234.8,803.6,235.1,803.9,235.5z"/>
<path className="st6" d="M803.9,234.6c-7.2,2.2-23.9,7.3-24.1,7.3l0.9-3.8c2.7-2.3,6.8-2.3,6.8-2.3c1.7-1.7,3.1-3.7,4.1-5.9
	c0.3-1.3,1.6-2.1,2.9-1.8c0.2,0,0.4,0.1,0.5,0.2c1.2-1,2.5-2,3.9-2.7c1.9-1,4.2,1,4.2,1l0.2,7.4
	C803.4,233.9,803.6,234.1,803.9,234.6z"/>
<path className="st5" d="M779,230.6c1,1.7,1.3,7.9,1.3,7.9l-2.8,2.2l-5.3-15.3l-0.2-7.9l-0.1-0.5l0.1,0.1c0.4-2.3,1.8-4.2,3.8-5.4
	l3.6,4.8l1.2,5.8c0,0-0.3,0.8-2.4,2.4S779,230.6,779,230.6z"/>
<path className="st6" d="M779.5,230.1c1,1.7,1.3,7.9,1.3,7.9l-2.8,2.3l-5.3-15.3l-0.2-7.9l-0.1-0.5l0.1,0.1c0.4-2.3,1.8-4.2,3.8-5.4
	l3.6,4.8l1.2,5.8c0,0-0.3,0.8-2.4,2.4S779.5,230.1,779.5,230.1z"/>
<path className="st5" d="M814.8,203.9c0,12-9.7,21.6-21.7,21.6c-12,0-21.6-9.7-21.6-21.7c0-12,9.7-21.6,21.6-21.6
	c11.9-0.1,21.6,9.4,21.7,21.3C814.8,203.7,814.8,203.8,814.8,203.9z"/>
<path className="st3" d="M814.8,203c0,12-9.7,21.7-21.6,21.7c-12,0-21.7-9.7-21.7-21.6c0-12,9.7-21.7,21.7-21.7c0,0,0,0,0,0
	c11.9-0.1,21.6,9.5,21.7,21.4C814.8,202.8,814.8,202.9,814.8,203z"/>
<path className="st5" d="M814.8,203c0,4-1.1,7.9-3.2,11.3c-0.3-0.6-0.5-1.2-0.8-1.8c-0.5-0.8-1.5-1.5-2.3-1c-0.3,0.3-0.6,0.6-0.7,1
	c-0.6,1.3-1.8,2.7-3.2,2.6c-1.3-0.1-2.4-1.1-2.7-2.3c-0.3-1.2-0.4-2.5-0.2-3.8c0.2-2.6,0.3-5.6-1.7-7.4c-1.2-0.9-2.7-1.5-4.2-1.9
	c-1.5-0.5-3-1.2-3.6-2.7c-0.4-1-0.3-2.1-0.7-3c-0.8-1.5-2.2-2.6-3.9-2.9c-1.9,1.6-4.3,2.4-6.8,2.3c-2.3-0.1-4.5-0.4-6.7-1.1
	c5.8-10.4,19-14.2,29.5-8.4C810.6,187.8,814.8,195.1,814.8,203L814.8,203z"/>
<path className="st11" d="M791.6,193c0.4,1,0.3,2.1,0.7,3c0.6,1.4,2.1,2.2,3.6,2.7c1.5,0.3,2.9,1,4.2,1.9c1.9,1.8,1.9,4.8,1.7,7.4
	c-0.2,1.3-0.1,2.6,0.2,3.8c0.3,1.3,1.4,2.2,2.7,2.3c1.5,0,2.6-1.3,3.2-2.6c0.1-0.4,0.4-0.7,0.7-1c0.8-0.5,1.8,0.2,2.3,1
	c0.3,0.9,0.7,1.7,1.3,2.4c0.7,0.6,1.7,0.8,2.6,0.6c0.9-0.2,1.7-0.7,2.5-1.3c2-1.4,3.6-3.3,4.6-5.5c1-2.3,0.9-4.8-0.3-7
	c-0.8-1.3-1.9-2.3-2.4-3.7c-0.8-2.4,0.7-4.9,1.7-7.2c0.9-2.1,1.2-4.5,0.8-6.8c-0.4-2.3-1.7-4.4-3.6-5.7c-3.8-2.5-8.9-1.1-13.3-2.4
	c-1.6-0.5-3.1-1.1-4.6-1.9c-2.2-1-4.6-1.7-7-2.2c-2.4-0.5-5.3-0.5-6.8,1.4c-0.4,0.6-0.8,1.3-1.1,1.9c-1,1.6-2.5,2.7-4.3,3.2
	c-1.3,0.3-2.6,0.2-4,0.4c-1.3,0.1-2.6,0.8-3.3,1.9c-0.7,1.2-0.4,2.7-0.2,4s0.1,2.9-1,3.8c-0.5,0.4-1.2,0.6-1.5,1.1
	c-0.3,0.7-0.1,1.4,0.5,1.9c0.6,0.4,1.2,0.7,1.9,0.8c2.5,0.8,5.1,1.2,7.7,1.3c2.6,0.1,5.2-0.9,7.1-2.6c-0.2,0.2-1.3,0.1-1.5,0.1
	C788.5,190.2,790.9,191.1,791.6,193z"/>
<g className="st12">
	<path d="M818.5,210.8c-0.7,0.6-1.6,1-2.5,1.3c-0.9,0.2-1.9,0-2.6-0.6c-0.5-0.7-1-1.6-1.3-2.4c-0.5-0.8-1.5-1.5-2.3-1
		c-0.3,0.3-0.6,0.6-0.7,1c-0.6,1.3-1.8,2.7-3.2,2.6c-1.3-0.1-2.4-1.1-2.7-2.3c-0.3-1.2-0.4-2.5-0.2-3.8c0.2-2.6,0.3-5.6-1.7-7.4
		c-1.2-0.9-2.7-1.5-4.2-1.9c-1.5-0.5-3-1.2-3.6-2.7c-0.4-1-0.3-2.1-0.7-3c-0.6-1.6-2.3-2.5-3.9-2.9c-1.9,1.6-4.3,2.4-6.8,2.3
		c-2.6-0.1-5.2-0.5-7.7-1.3c-0.7-0.1-1.3-0.4-1.9-0.8c-0.1-0.1-0.2-0.2-0.3-0.4c-0.4,0.2-0.8,0.5-1.1,0.9c-0.3,0.7-0.1,1.4,0.5,1.9
		c0.6,0.4,1.2,0.7,1.9,0.8c2.5,0.8,5.1,1.2,7.7,1.3c2.5,0.1,4.9-0.8,6.8-2.3c1.6,0.4,3.3,1.3,3.9,2.9c0.4,1,0.3,2.1,0.7,3
		c0.6,1.4,2.1,2.2,3.6,2.7c1.5,0.3,2.9,1,4.2,1.9c1.9,1.8,1.9,4.8,1.7,7.4c-0.2,1.3-0.1,2.6,0.2,3.8c0.3,1.3,1.4,2.2,2.7,2.3
		c1.5,0,2.6-1.3,3.2-2.6c0.1-0.4,0.4-0.7,0.7-1c0.8-0.5,1.8,0.2,2.3,1c0.3,0.9,0.8,1.7,1.3,2.4c0.7,0.6,1.7,0.8,2.6,0.6
		c0.9-0.2,1.7-0.7,2.5-1.3c2-1.4,3.6-3.3,4.6-5.5c0.2-0.4,0.3-0.9,0.4-1.3C821.5,208.1,820.1,209.6,818.5,210.8z"/>
	<path d="M820.5,191.1c0.2-0.5,0.4-0.9,0.6-1.4c0.2-0.4,0.3-0.7,0.4-1.1C821.1,189.5,820.7,190.3,820.5,191.1z"/>
	<path d="M773.7,184.9c1-0.9,1.1-2.4,0.9-3.7c-0.1-0.8-0.2-1.5-0.2-2.3c-0.2,0.2-0.4,0.4-0.5,0.7c-0.7,1.2-0.4,2.7-0.2,4
		C773.7,184,773.7,184.4,773.7,184.9z"/>
</g>
<path className="st5" d="M777.6,333.7c-1.9,0.1-4.5,0.3-7.6,0.4c-2.2,0.1-4.6,0.1-7.2,0.1c-2.3,0-4.7,0-7.2-0.1
	c-7.9-0.2-15.8-1-23.6-2.4c-10.4-2-20-5.5-26-11.3c1-1.9,1.9-3.5,2.3-4.1c0-0.6,0-1.2-0.1-1.9c10.5,5,43.4,18.9,68.7,11
	c0,0.8,0.1,1.4,0.1,1.4l0.6,0.5C777.3,328.3,777.5,331.7,777.6,333.7z"/>
<path className="st8" d="M777.6,332.8c-1.9,0.1-4.5,0.3-7.6,0.4c-2.2,0.1-4.6,0.1-7.2,0.1c-2.3,0-4.7,0-7.2-0.1
	c-7.9-0.2-15.8-1-23.6-2.4c-10.4-2-20-5.5-26-11.3c1-1.9,1.9-3.5,2.3-4.1c0-0.6,0-1.2-0.1-1.9c10.5,5,43.4,18.9,68.7,11
	c0,0.8,0.1,1.4,0.1,1.4l0.6,0.5C777.3,327.3,777.5,330.7,777.6,332.8z"/>
<path className="st13" d="M278.5,770.4c-2.4-2.9-3.5-6.7-3.1-10.5l44.1-361.2l3.7-30c0.8-6.9,6.7-12.1,13.6-12.2l129.3-0.9
	c7.6,0,13.8-6.3,13.7-13.9c0-0.1,0-0.2,0-0.3l0-1.4c-0.3-7.6,5.7-14,13.4-14.3c0.2,0,0.3,0,0.5,0h135.9c7.6,0,13.8,6.2,13.8,13.8
	c0,0.6,0,1.2-0.1,1.9c-1,7.6,4.3,14.5,11.9,15.5c0.5,0.1,1,0.1,1.5,0.1l130.5,3.3c7.6,0.2,13.7,6.5,13.5,14.2c0,0.7-0.1,1.3-0.2,2
	l-65.2,381l-1.2,7.2c-0.3,1.8-1,3.6-2,5.2L278.5,770.4z"/>
<g className="st14">
	
		<linearGradient id="SVGID_3_" gradientUnits="userSpaceOnUse" x1="854.8276" y1="335.7433" x2="854.8276" y2="598.5733" gradientTransform="matrix(0.8227 0.5684 0.5684 -0.8227 -339.3118 275.8576)">
		<stop  offset="0" style="stop-color:#808080;stop-opacity:0.25"/>
		<stop  offset="0.54" style="stop-color:#808080;stop-opacity:0.12"/>
		<stop  offset="1" style="stop-color:#808080;stop-opacity:0.1"/>
	</linearGradient>
	<polygon className="st15" points="521.8,462.7 671.2,246.4 737.3,292.1 587.9,508.4 	"/>
</g>
<rect x="500.4" y="339.6" transform="matrix(0.5684 -0.8227 0.8227 0.5684 -38.8927 681.3743)" className="st16" width="259.3" height="76.4"/>
<rect x="656.6" y="270" transform="matrix(0.5708 -0.8211 0.8211 0.5708 49.5226 688.7719)" className="st17" width="53.9" height="53.9"/>
<rect x="622" y="323.4" transform="matrix(0.5684 -0.8227 0.8227 0.5684 -8.2127 685.1848)" className="st18" width="54" height="54"/>
<rect x="584.9" y="377.1" transform="matrix(0.5684 -0.8227 0.8227 0.5684 -68.3524 677.8358)" className="st19" width="54" height="54"/>
<g className="st14">
	
		<linearGradient id="SVGID_4_" gradientUnits="userSpaceOnUse" x1="665.9131" y1="158.7865" x2="665.9131" y2="420.6364" gradientTransform="matrix(0.9599 0.2805 0.2805 -0.9599 -137.1637 461.8063)">
		<stop  offset="0" style="stop-color:#808080;stop-opacity:0.25"/>
		<stop  offset="0.54" style="stop-color:#808080;stop-opacity:0.12"/>
		<stop  offset="1" style="stop-color:#808080;stop-opacity:0.1"/>
	</linearGradient>
	<polygon className="st20" points="508,484.9 581.4,233.6 658.6,256.1 585.1,507.5 	"/>
</g>
<rect x="454.7" y="332.5" transform="matrix(0.2805 -0.9599 0.9599 0.2805 64.3035 827.1951)" className="st16" width="258.3" height="76.4"/>
<rect x="584.4" y="249.7" transform="matrix(0.2805 -0.9599 0.9599 0.2805 174.3827 785.9646)" className="st21" width="54" height="54"/>
<rect x="566.2" y="312.2" transform="matrix(0.2805 -0.9599 0.9599 0.2805 101.1471 813.4382)" className="st22" width="54" height="54"/>
<rect x="547.9" y="374.8" transform="matrix(0.2805 -0.9599 0.9599 0.2805 27.9227 840.9075)" className="st23" width="54" height="54"/>
<g className="st14">
	
		<linearGradient id="SVGID_5_" gradientUnits="userSpaceOnUse" x1="511.3519" y1="129.3607" x2="511.3519" y2="391.2107" gradientTransform="matrix(0.9968 8.019890e-02 8.019890e-02 -0.9968 28.0964 590.1063)">
		<stop  offset="0" style="stop-color:#808080;stop-opacity:0.25"/>
		<stop  offset="0.54" style="stop-color:#808080;stop-opacity:0.12"/>
		<stop  offset="1" style="stop-color:#808080;stop-opacity:0.1"/>
	</linearGradient>
	<polygon className="st24" points="508.1,498.9 529.1,237.9 609.2,244.4 588.2,505.4 	"/>
</g>
<rect x="430.1" y="333.5" transform="matrix(8.019892e-02 -0.9968 0.9968 8.019892e-02 143.8634 899.3697)" className="st16" width="258.3" height="76.4"/>
<rect x="540.1" y="247.1" transform="matrix(8.019892e-02 -0.9968 0.9968 8.019892e-02 248.4547 817.385)" className="st25" width="54" height="54"/>
<rect x="534.9" y="312" transform="matrix(8.019892e-02 -0.9968 0.9968 8.019892e-02 178.8674 871.9364)" className="st26" width="54" height="54"/>
<rect x="529.7" y="377" transform="matrix(8.019892e-02 -0.9968 0.9968 8.019892e-02 109.2678 926.516)" className="st27" width="54" height="54"/>
<g className="st14">
	
		<linearGradient id="SVGID_6_" gradientUnits="userSpaceOnUse" x1="419.272" y1="113.9795" x2="419.272" y2="375.8295" gradientTransform="matrix(0.999 -4.553734e-02 -4.553734e-02 -0.999 132.9714 641.3385)">
		<stop  offset="0" style="stop-color:#808080;stop-opacity:0.25"/>
		<stop  offset="0.54" style="stop-color:#808080;stop-opacity:0.12"/>
		<stop  offset="1" style="stop-color:#808080;stop-opacity:0.1"/>
	</linearGradient>
	<polygon className="st28" points="494.6,248.6 574.8,245 586.8,506.6 506.5,510.2 	"/>
</g>
<rect x="503.1" y="248.4" transform="matrix(0.999 -4.553734e-02 4.553734e-02 0.999 -16.6318 25.0417)" className="st29" width="76.4" height="258.3"/>
<rect x="509.9" y="252.7" transform="matrix(0.999 -4.553734e-02 4.553734e-02 0.999 -12.1785 24.7371)" className="st30" width="54" height="54"/>
<rect x="515.1" y="315.6" transform="matrix(0.9988 -4.993762e-02 4.993762e-02 0.9988 -16.4347 27.4981)" className="st31" width="54.1" height="54.1"/>
<rect x="515.8" y="382.9" transform="matrix(0.999 -4.553734e-02 4.553734e-02 0.999 -18.1047 25.1426)" className="st32" width="54" height="54"/>
<path className="st33" d="M529.7,590.7L461.8,617l-99.2,38.3c-3.8-7-9.3-16.5-16.1-27.8c-23.5-38.9-62.4-99.5-97-152.7
	c-39-60-72.6-110.6-72.6-110.6l24.3-7l198.5-57.6L529.7,590.7z"/>
<path className="st34" d="M529.7,590.7L461.8,617c-37.9,7.9-76.6,11.5-115.3,10.6c-23.5-38.9-62.4-99.5-97-152.7l-48.2-117.7l198.5-57.6
	L529.7,590.7z"/>
<path className="st30" d="M580.2,574.4c0,0-105.5,62.4-262.9,48.3l-125.5-306l60.1-10.3l207.9-35.7l118,297.8L580.2,574.4z"/>
<path className="st34" d="M577.8,568.5c-24.8,1.2-53.6,1.1-82.5-2.3c-31.3-3.7-62.7-11.3-89.7-25.2c-22.5-11.6-41.8-24.2-58.6-39.4
	c-43.7-39.3-70.8-95.6-95.1-195.2l207.9-35.7L577.8,568.5z"/>
<path className="st16" d="M655.2,551.4c0,0-77.7,15.2-156.9,5.8c-31.3-3.7-62.7-11.3-89.7-25.2c-22.5-11.6-41.8-24.2-58.6-39.4
	c-54.1-48.7-82.7-123.3-112.2-274c0,0,129.2,31.2,257-37.1C494.8,181.6,537.9,450.4,655.2,551.4z"/>
<path className="st34" d="M498.3,557.2c-31.3-3.7-62.7-11.3-89.7-25.2c-22.5-11.6-41.8-24.2-58.6-39.4c46.1-3.7,52.7-28.9,52.7-28.9
	C436.9,517.9,498.3,557.2,498.3,557.2z"/>
<path className="st32" d="M304.7,274c0,0,105.1-5.9,134.4-28.6l4.5,14.3c0,0-69.4,30.6-138.9,31V274z"/>
<path className="st32" d="M304.7,344.6c0,0,101.7-5.6,178.6-42.7l2.6,5.9c0,0-61,35.6-181.2,44.9L304.7,344.6z"/>
<path className="st32" d="M312.9,372.1c0,0,101.7-5.6,178.6-42.7l2.6,5.9c0,0-61,35.6-181.2,44.9L312.9,372.1z"/>
<path className="st32" d="M321,399.6c0,0,101.7-5.6,178.6-42.7l2.6,5.9c0,0-61,35.6-181.2,44.9V399.6z"/>
<path className="st32" d="M329.2,427.2c0,0,101.7-5.6,178.6-42.7l2.6,5.9c0,0-61,35.6-181.2,44.9L329.2,427.2z"/>
<path className="st32" d="M337.4,454.7c0,0,101.7-5.6,178.6-42.7l2.6,5.9c0,0-61,35.6-181.2,44.9V454.7z"/>
<path className="st30" d="M1052.8,796.8c0,0-42.3-2.5-37.3,27.1c0,0-1,5.2,3.8,7.6c0,0,0.1-2.2,4.3-1.5c1.5,0.3,3.1,0.3,4.6,0.2
	c2.1-0.1,4-1,5.6-2.3l0,0c0,0,11.9-4.9,16.5-24.3c0,0,3.4-4.2,3.3-5.3l-7.1,3c0,0,2.4,5.2,0.5,9.4c0,0-0.2-9.2-1.6-9
	c-0.3,0-3.7,1.8-3.7,1.8s4.2,9,1,15.5c0,0,1.2-11-2.3-14.8l-5,2.9c0,0,4.9,9.3,1.6,16.8c0,0,0.8-11.6-2.6-16.1l-4.6,3.5
	c0,0,4.6,9.1,1.8,15.4c0,0-0.4-13.5-2.8-14.5c0,0-4,3.5-4.6,5c0,0,3.2,6.6,1.2,10.1c0,0-1.2-9-2.2-9c0,0-4,6-4.4,10
	c0,0,0.2-6.1,3.4-10.6c-2.3,0.4-4.4,1.5-6.1,3.2c0,0,0.6-4.2,7.1-4.6c0,0,3.3-4.5,4.1-4.8c0,0-6.4-0.5-10.3,1.2c0,0,3.4-4,11.5-2.2
	l4.5-3.7c0,0-8.4-1.2-12,0.1c0,0,4.1-3.5,13.2-1l4.9-2.9c0,0-7.2-1.5-11.5-1c0,0,4.5-2.4,12.9,0.2l3.5-1.6c0,0-5.3-1-6.8-1.2
	s-1.6-0.6-1.6-0.6c3.3-0.6,6.8-0.2,9.9,1.1C1045.5,800,1052.9,797.3,1052.8,796.8z"/>
<ellipse className="st0" cx="1023.7" cy="834.1" rx="29.9" ry="5.1"/>
<ellipse className="st0" cx="813.8" cy="815.2" rx="102" ry="9.2"/>
<path className="st30" d="M1072.5,699c0,0-23.8-1.4-21,15.3c-0.3,1.7,0.6,3.5,2.1,4.3c0,0,0.1-1.2,2.4-0.8c0.9,0.1,1.7,0.2,2.6,0.1
	c1.2-0.1,2.3-0.5,3.2-1.3l0,0c0,0,6.7-2.8,9.3-13.7c0,0,1.9-2.4,1.8-3l-4,1.7c0,0,1.4,2.9,0.3,5.3c0,0-0.1-5.2-0.9-5.1
	c-0.2,0-2.1,1-2.1,1s2.4,5,0.6,8.7c0,0,0.7-6.2-1.3-8.4l-2.8,1.7c0,0,2.8,5.2,0.9,9.5c0,0,0.5-6.5-1.5-9.1l-2.6,2c0,0,2.6,5.2,1,8.7
	c0,0-0.2-7.6-1.6-8.2c-1,0.8-1.8,1.8-2.6,2.8c0,0,1.8,3.7,0.7,5.7c0,0-0.7-5.1-1.2-5.1c0,0-2.2,3.3-2.5,5.7c0.1-2.1,0.8-4.2,1.9-6
	c-1.3,0.2-2.5,0.9-3.4,1.8c0,0,0.3-2.4,4-2.6c0,0,1.8-2.5,2.3-2.7c0,0-3.6-0.3-5.8,0.7c0,0,1.9-2.2,6.5-1.2l2.5-2.1
	c0,0-4.8-0.7-6.8,0.1c0,0,2.3-2,7.4-0.5l2.8-1.7c-2.1-0.5-4.3-0.6-6.5-0.5c0,0,2.6-1.4,7.3,0.1l2-0.9c0,0-3-0.6-3.8-0.7
	s-0.9-0.3-0.9-0.3c1.9-0.3,3.8-0.1,5.6,0.6C1068.4,700.8,1072.5,699.3,1072.5,699z"/>
<ellipse className="st0" cx="1056.1" cy="720" rx="16.9" ry="2.8"/>
<path className="st30" d="M931.8,713.5c0,0-28.8-1.7-25.4,18.4c-0.4,2.1,0.7,4.2,2.5,5.2c0,0,0-1.5,3-1c1,0.2,2.1,0.2,3.1,0.2
	c1.4-0.1,2.8-0.6,3.8-1.6l0,0c0,0,8.1-3.3,11.2-16.6c0,0,2.3-2.9,2.2-3.6l-4.9,2.1c0,0,1.7,3.5,0.3,6.4c0,0-0.2-6.3-1.1-6.1
	c-0.2,0-2.5,1.2-2.5,1.2s2.8,6.1,0.7,10.5c0,0,0.8-7.5-1.6-10.1l-3.4,2c0,0,3.3,6.3,1.1,11.5c0,0,0.6-7.9-1.8-11l-3.1,2.4
	c0,0,3.1,6.2,1.2,10.5c0,0-0.2-9.2-1.9-9.9c0,0-2.7,2.4-3.1,3.4c0,0,2.1,4.5,0.8,6.9c0,0-0.8-6.1-1.5-6.2c0,0-2.7,4.1-3,6.8
	c0.1-2.6,0.9-5.1,2.3-7.2c-1.6,0.3-3,1-4.1,2.2c0,0,0.4-2.9,4.8-3.1c0,0,2.2-3.1,2.8-3.3c0,0-4.4-0.4-7,0.8c0,0,2.3-2.7,7.8-1.5
	l3.1-2.5c0,0-5.7-0.8-8.2,0.1c0,0,2.8-2.4,9-0.6l3.3-2c0,0-4.9-1-7.8-0.7c0,0,3.1-1.7,8.8,0.1l2.4-1.1c0,0-3.6-0.7-4.6-0.8
	s-1.1-0.4-1.1-0.4c2.3-0.4,4.6-0.1,6.7,0.7C926.8,715.7,931.9,713.8,931.8,713.5z"/>
<ellipse className="st0" cx="912" cy="738.9" rx="20.4" ry="3.4"/>
<linearGradient id="SVGID_7_" gradientUnits="userSpaceOnUse" x1="1212.1062" y1="646.6511" x2="1212.1062" y2="817.3212" gradientTransform="matrix(0.951 0.3092 0.3092 -0.951 -417.7122 449.7267)">
	<stop  offset="0" style="stop-color:#808080;stop-opacity:0.25"/>
	<stop  offset="0.54" style="stop-color:#808080;stop-opacity:0.12"/>
	<stop  offset="1" style="stop-color:#808080;stop-opacity:0.1"/>
</linearGradient>
<polygon className="st35" points="789.7,162.3 842.5,0 1132.9,94.4 1080.2,256.7 "/>
<rect x="877.2" y="-22.2" transform="matrix(0.3092 -0.951 0.951 0.3092 542.0127 1002.9002)" className="st36" width="168.3" height="301.2"/>
<g className="st37">
	<circle className="st30" cx="874.9" cy="90.4" r="31.4"/>
</g>
<g className="st37">
	
		<rect x="1012" y="33.4" transform="matrix(0.3092 -0.951 0.951 0.3092 605.2789 1036.7712)" className="st30" width="8.6" height="136.6"/>
</g>
<g className="st37">
	
		<rect x="973.3" y="77.4" transform="matrix(0.3092 -0.951 0.951 0.3092 568.6296 1007.2493)" className="st30" width="8.6" height="69.6"/>
</g>
<g className="st37">
	
		<rect x="987" y="83.4" transform="matrix(0.3092 -0.951 0.951 0.3092 551.9218 1039.2158)" className="st30" width="8.6" height="112.6"/>
</g>
<g className="st37">
	
		<rect x="991.6" y="95.9" transform="matrix(0.3092 -0.951 0.951 0.3092 531.7989 1060.6187)" className="st30" width="8.6" height="136.6"/>
</g>
<g className="st14">
	
		<rect x="1023.6" y="194.5" transform="matrix(0.3092 -0.951 0.951 0.3092 509.8867 1128.7975)" className="st30" width="16.6" height="37.8"/>
</g>
<linearGradient id="SVGID_8_" gradientUnits="userSpaceOnUse" x1="864.8273" y1="-7.5476" x2="864.8273" y2="414.6302" gradientTransform="matrix(1 0 0 -1 -33.54 811.57)">
	<stop  offset="0" style="stop-color:#808080;stop-opacity:0.25"/>
	<stop  offset="0.54" style="stop-color:#808080;stop-opacity:0.12"/>
	<stop  offset="1" style="stop-color:#808080;stop-opacity:0.1"/>
</linearGradient>
<path className="st38" d="M935,483c0-0.3,0-0.7-0.1-1c0-0.3-0.1-0.7-0.2-1c-0.1-0.7-0.3-1.4-0.4-2c-0.1-0.3-0.2-0.6-0.3-0.9
	c-0.9-3.5-2.7-6.8-5-9.7c-0.1-0.2-0.3-0.3-0.4-0.5s-0.5-0.6-0.8-0.9s-0.5-0.5-0.8-0.7s-0.5-0.4-0.7-0.6c-0.5-0.4-0.9-0.7-1.3-1
	s-0.6-0.4-0.8-0.5c-0.6-0.3-1.2-0.6-1.9-0.6l-4.2-0.4l0,0l-5.7-0.6l-20.3-7.9l-0.8,0.3c-0.6-1.6-1.1-3.3-1.5-5
	c0.6-0.3,1.2-0.7,1.6-1.2c0.5-0.4,0.9-0.9,1.1-1.4c0.5-1.2-0.5-3.7-0.3-5.1c0.3-2.3,1.5-4.5,2.5-6.6c2.1-4.5,3.6-9.4,3.3-14.3
	s-2.5-9.9-6.7-12.7c-2.2-1.4-4.7-2.2-6.9-3.5c-1.7-1-3.3-2.3-4.9-3.5c-8.3-5.5-18.9-6.3-27.9-2c-4.2,2.1-7.8,5.2-11.8,7.7
	s-8.7,4.4-13.3,3.7c-0.1,0.2-0.1,0.4-0.1,0.6l-0.4,0c-0.8,2.2,1.2,4.3,3,5.8c3.4,2.8,7.3,5.6,11.8,5.8c1.7,0,3.6-0.3,5.1,0.4
	c0.4,0.2,0.7,0.4,1,0.6c-2,8.1,0.7,16.7,7,22.2l-10.3-3.7c0,0-0.4,0.2-1.1,0.6l-14.4-9.6c0,0-28.8-10.4-36.8,5.8s34.7,7.9,34.7,7.9
	l9.1,5c-0.3,1.9,0,3.8,1,5.5l24.9,15.4c-5,1.5-13.3,4-14.8,4c-2.1,0-8,2.1-11.7,10.5s-17.1,49.3-28.8,56.1s-42.7,52.5-42.7,52.5
	l0.1,0.4c-0.5,0.2-1.1,0.3-1.6,0.5c-6.5,2.3-12.1,6.5-16.1,12.1c-1.7,2.3-1.1,5.5,1.2,7.2c0.7,0.5,1.6,0.8,2.4,0.9
	c12.2,1.5,18.9-4.1,22.1-8.3c0.2-0.3,0.4-0.5,0.6-0.8c1,0.4,2,0.5,3,0.1l14.9-12.1c0,0-11.7,11.5-4.8,22l-0.5,0.7
	c-11.5,16.5-20,34.9-25,54.4c0,0-6.4,4.7-6.9,23.6s-6.9,49.3-6.9,49.3s-4.3,36.2-1.6,47.2c0,0,0.3,0.4,0.9,1.1
	c-0.2,0.2-0.4,0.5-0.7,0.8c-2.3,2.5-6.5,6-11.4,5c-7.5-1.6-7.5,11.5,3.2,12.6c6.9,0.7,20.4,3.7,29.1,5.8c3.3,0.8,6.6-1.2,7.4-4.4
	c0.2-0.7,0.2-1.4,0.2-2.1c-0.5-4.7-1.5-10.4-3.2-14.4c-0.1-0.3-0.2-0.5-0.3-0.7c0.3-0.3,0.6-0.6,0.9-0.9c0,0,0-23.1,3.7-29.4
	c0,0,10.1-47.8,9.6-59.8c-0.4-9.4,26.3-46.2,37.9-61.7l-0.1-0.6c3-4,4.9-6.4,4.9-6.4l9,57.2c0,0,4.3,12.6,9.6,19.4
	c0,0,22.9,43.5,25.6,57.2c2,10.3,6.2,16.5,8.1,18.8l-0.7,0.7c-2.4,2.2-6,4.5-10.1,3.6c-7.5-1.6-7.5,11.5,3.2,12.6
	c6.9,0.7,20.4,3.8,29.1,5.8c3.3,0.8,6.6-1.2,7.5-4.5c0.2-0.7,0.2-1.4,0.2-2.1c-0.6-5.5-1.8-12.3-4.1-16.3c-0.2-0.3-0.4-0.7-0.6-1
	c0.8-0.3,1.5-0.8,2.1-1.5c0,0-13.9-33.1-13.9-42c0,0-5.9-34.1-25.6-46.7c0,0,1.9-42.7,7.5-66.4c0.1-0.6,0.3-1.2,0.4-1.7
	c5.2-0.8,10.4-1.9,15.6-3.2l0.5-15.7l2.7,12.6l29.9-18.4c0,0-0.3-3.3-0.8-8.4c-0.3-2.5-0.6-5.5-0.9-8.8c-0.3-2.6-0.6-5.3-1-8.1
	c-0.1-0.7-0.2-1.4-0.3-2.1c-0.4-2.8-0.8-5.7-1.3-8.5c-0.2-1.1-0.4-2.1-0.5-3.1c-0.3-1.4-0.5-2.7-0.8-4c-0.1-0.7-0.3-1.3-0.4-1.9
	s-0.3-1.3-0.4-1.9s-0.3-1.2-0.4-1.8c-0.1-0.3-0.2-0.6-0.2-0.9c-0.2-0.6-0.3-1.1-0.5-1.7c-0.6-2.2-1-4.6-1.1-6.9c0-0.9,0-1.8,0-2.8
	s0.1-1.8,0.3-2.8c0.1-0.5,0.1-0.9,0.2-1.4c0.3-1.8,0.8-3.6,1.5-5.4c0.3-0.9,0.7-1.7,1.1-2.6c1-2,2-4.1,3.1-6.4
	c0.5-1.1,1.1-2.3,1.6-3.5s1.1-2.4,1.6-3.6c5.2-11.6,10.3-24.5,11.7-32.9c0.1-0.9,0.3-1.7,0.3-2.5C935,484.4,935,483.7,935,483z"/>
<path className="st39" d="M845.9,451.6l-17.6-11.9c0,0-27.9-10.4-35.7,5.7s33.6,7.8,33.6,7.8l17.6,9.8L845.9,451.6z"/>
<rect x="726.6" y="419.3" transform="matrix(0.5408 -0.8412 0.8412 0.5408 -90.5688 934.6614)" className="st16" width="168.2" height="261.9"/>
<rect x="681.4" y="517.7" transform="matrix(0.5363 -0.844 0.844 0.5363 -114.6391 837.8749)" className="st13" width="47.6" height="11.2"/>
<rect x="698" y="502" transform="matrix(0.5363 -0.844 0.844 0.5363 -80.1051 868.4495)" className="st13" width="104.5" height="10.3"/>
<rect x="716.5" y="513.7" transform="matrix(0.5363 -0.844 0.844 0.5363 -81.4395 889.5303)" className="st13" width="104.5" height="10.3"/>
<rect x="735" y="525.5" transform="matrix(0.5363 -0.844 0.844 0.5363 -82.7918 910.6152)" className="st13" width="104.5" height="10.3"/>
<rect x="754.5" y="542.8" transform="matrix(0.5408 -0.8412 0.8412 0.5408 -90.4691 930.1755)" className="st13" width="104.4" height="10.3"/>
<rect x="772.1" y="549" transform="matrix(0.5363 -0.844 0.844 0.5363 -85.4754 952.7775)" className="st29" width="104.5" height="10.3"/>
<rect x="790.6" y="560.8" transform="matrix(0.5363 -0.844 0.844 0.5363 -86.8097 973.8583)" className="st29" width="104.5" height="10.3"/>
<rect x="893.4" y="539.5" transform="matrix(0.5363 -0.844 0.844 0.5363 -46.1946 1021.9333)" className="st13" width="27.1" height="27.1"/>
<path className="st40" d="M897.9,814.2c-8.5-2.1-21.6-5.1-28.2-5.8c-10.3-1-10.3-14-3.1-12.4c3.9,0.8,7.4-1.4,9.8-3.5
	c0.7-0.7,1.4-1.4,2-2.2c0.9-1,2-1.8,3.3-2c3.9-0.8,12-2.1,16.9,0.5c1.1,0.7,2.1,1.7,2.7,2.9c2.2,4,3.4,10.7,4,16
	c0.4,3.3-2,6.3-5.3,6.6C899.3,814.4,898.6,814.4,897.9,814.2z"/>
<path className="st40" d="M767.1,819.4c-8.5-2.1-21.6-5.1-28.2-5.8c-10.3-1-10.3-14-3.1-12.4c4.7,1,8.8-2.4,11.1-4.9
	c0.3-0.3,0.5-0.6,0.7-0.9c0.9-1,2-1.7,3.3-2c3.9-0.8,12-2.1,16.9,0.5c1.5,0.8,2.6,2.5,3.5,4.7c1.7,4,2.6,9.6,3.1,14.2
	c0.3,3.3-2.1,6.2-5.4,6.5C768.4,819.6,767.7,819.5,767.1,819.4z"/>
<path className="st34" d="M771.3,798.7c-12.3,12.7-22.9-0.2-24.5-2.4c0.3-0.3,0.5-0.6,0.7-0.9c0.9-1,2-1.7,3.3-2
	c3.9-0.8,12-2.1,16.9,0.5C769.3,794.8,770.5,796.5,771.3,798.7z"/>
<path className="st34" d="M901.3,791.7c-5.3,3.7-23.4,2.8-23.4,2.8c-0.6-0.6-1.1-1.3-1.6-2c0.7-0.7,1.4-1.4,2-2.2c0.9-1,2-1.8,3.3-2
	c3.9-0.8,12-2.1,16.9,0.5C899.8,789.5,900.7,790.5,901.3,791.7z"/>
<path className="st41" d="M902.3,789.3c-3.6,4.7-24.3,3.6-24.3,3.6s-6.2-6.2-8.8-19.7s-24.8-56.4-24.8-56.4c-5.2-6.7-9.3-19.1-9.3-19.1
	l-8.8-56.4c0,0-42.4,55.9-41.9,67.8s-9.3,59-9.3,59c-3.6,6.2-3.6,29-3.6,29c-13.4,14-24.8-2.6-24.8-2.6c-2.6-10.9,1.5-46.5,1.5-46.5
	s6.2-30,6.7-48.6s6.7-23.3,6.7-23.3c4.8-19.2,13.1-37.4,24.3-53.7c3.1-4.5,5.2-6.9,5.2-6.9l83.8,9.8c-1.6,3.6-2.8,7.3-3.6,11.1
	c-5.5,23.4-7.3,65.5-7.3,65.5c19.1,12.4,24.8,46,24.8,46C888.8,756.7,902.3,789.3,902.3,789.3z"/>
<g className="st12">
	<path d="M821.6,648.3l-1.1-6.9c0,0-42.4,55.9-41.9,67.8s-9.3,59-9.3,59c-3.6,6.2-3.6,29-3.6,29c-2.2,2.4-5,4.2-8.1,5.2
		c4.1,1.1,9,0.3,14.3-5.2c0,0,0-22.8,3.6-29c0,0,9.8-47.1,9.3-59C784.5,699.8,810.4,663.6,821.6,648.3z"/>
	<path d="M889.3,747.9c0,0-5.7-33.6-24.8-46c0,0,1.8-42,7.3-65.5c0.8-3.8,2-7.5,3.6-11.1l-83.8-9.8c0,0-0.2,0.2-0.6,0.7l78.1,9.2
		c-1.6,3.6-2.8,7.3-3.6,11.1c-5.5,23.4-7.3,65.5-7.3,65.5c19.1,12.4,24.8,46,24.8,46c0,8.8,13.5,41.4,13.5,41.4
		c-2.1,2.7-10.2,3.5-16.5,3.7c5,0.1,19.7,0.2,22.7-3.7C902.8,789.3,889.3,756.7,889.3,747.9z"/>
</g>
<path className="st39" d="M775.6,608.3c-0.6,1.5-1.4,3-2.5,4.3c-3.1,4.2-9.6,9.7-21.4,8.2c-2.8-0.4-4.8-2.9-4.4-5.7
	c0.1-0.8,0.4-1.6,0.9-2.3c3.8-5.5,9.3-9.7,15.6-12c2.1-0.7,4.4-1.2,6.6-1.3L775.6,608.3z"/>
<path className="st42" d="M884.8,463.6l-41.5-15.2c0,0-11.9,6.2-7.2,15l40.4,25.4L884.8,463.6z"/>
<path className="st34" d="M885,463.8l-41.5-15.2c0,0-11.9,6.2-7.2,15l40.3,25.3L885,463.8z"/>
<path className="st39" d="M886.2,438.6c0,0-0.5,24.3,10.3,32.6S865,484.1,865,484.1s6.7-24.8,0-37.8S886.2,438.6,886.2,438.6z"/>
<path className="st34" d="M874.9,625.4c-1.6,3.6-2.8,7.3-3.6,11.1c-50,7.6-84.8-13.2-84.8-13.2c-0.2-0.3-0.4-0.6-0.5-0.9
	c3.1-4.5,5.2-6.9,5.2-6.9L874.9,625.4z"/>
<path className="st34" d="M775.6,608.3c-0.6,1.5-1.4,3-2.5,4.3c-4.8-0.8-8.6-10-9.3-11.7c2.1-0.7,4.4-1.2,6.6-1.3L775.6,608.3z"/>
<path className="st42" d="M890.4,460.4l-18.6,6.7l-7.8,10.4c0,0-16,5.2-18.1,5.2s-7.8,2.1-11.4,10.3s-16.5,48.6-27.9,55.3
	S765.2,600,765.2,600s5.2,14,11.4,11.9l14.5-11.9c0,0-11.4,11.4-4.7,21.7c0,0,42.4,25.3,100.9,9.8l0.5-15.5l2.6,12.4l29-18.1
	c0,0-2.6-33.4-7.3-50.4c-1.9-7.1-1.2-14.7,2-21.4c7.5-15.7,19.1-41.8,17.7-51.3c-1.7-11.2-8-16.1-10.4-17.6
	c-0.6-0.3-1.2-0.5-1.8-0.6l-9.5-0.9L890.4,460.4z"/>
<path className="st5" d="M858.6,512.3c0,0-10.3,48.1-21.7,55.9s-41.9,32.6-42.9,36.7"/>
<path className="st42" d="M853.9,510.8c0,0-10.3,48.1-21.7,55.9s-41.9,32.6-42.9,36.7"/>
<path className="st34" d="M863.7,477.2c0,0,35.7-11.9,46-8.8"/>
<g className="st12">
	<path d="M914.1,538.6c7.5-15.7,19.1-41.8,17.7-51.3c-1.7-11.2-8-16.1-10.4-17.6c-0.6-0.3-1.2-0.5-1.8-0.6l-4-0.4
		c0.4,0.1,0.8,0.3,1.2,0.5c2.4,1.5,8.8,6.4,10.4,17.6c1.4,9.5-10.2,35.7-17.7,51.3c-3.2,6.7-3.9,14.3-2,21.4
		c4.7,17,7.3,50.4,7.3,50.4l-24.9,15.6l0.6,3l29-18.1c0,0-2.6-33.4-7.3-50.4C910.2,552.8,910.9,545.2,914.1,538.6z"/>
	<polygon points="905.4,467.6 909.9,468 890.4,460.4 888.6,461 	"/>
</g>
<path className="st5" d="M853.9,561c0,0,16-8.8,21.2-6.7s24.3-0.5,24.3-0.5"/>
<path className="st5" d="M884.5,445.1c-0.6-5.2,1.8-4.4,1.8-4.4s-27.9-5.2-21.2,7.8c1.7,3.6,2.7,7.4,2.8,11.4h0.3
	C875.9,459.8,880.5,451.1,884.5,445.1z"/>
<circle className="st39" cx="868.1" cy="435.5" r="22.2"/>
<path className="st34" d="M892.5,442.1c2-4.4,3.5-9.2,3.3-14.1s-2.4-9.8-6.5-12.5c-2.1-1.4-4.5-2.1-6.7-3.4c-1.7-1-3.2-2.3-4.8-3.4
	c-8-5.5-18.3-6.2-27.1-2c-4.1,2-7.6,5.1-11.4,7.6s-8.4,4.3-12.9,3.6c-0.8,2.1,1.1,4.3,2.9,5.8c3.3,2.8,7.1,5.6,11.4,5.7
	c1.7,0,3.5-0.3,5,0.4c1,0.6,1.9,1.4,2.5,2.4c2.1,2.8,3.9,5.8,5.3,9c0.4,1.4,1.3,2.6,2.4,3.5c2,1.3,4.6,0.2,7,0.1
	c3.7-0.1,7,2.2,9.7,4.6s5.3,5.3,8.8,6.6c2.6,1,7.7,0.9,9-2.1c0.5-1.2-0.5-3.6-0.3-5.1C890.6,446.3,891.4,444.1,892.5,442.1z"/>
<path className="st42" d="M892.9,441.6c2-4.4,3.5-9.2,3.3-14.1s-2.4-9.8-6.5-12.5c-2.1-1.4-4.5-2.2-6.7-3.4c-1.7-1-3.2-2.3-4.8-3.4
	c-8-5.5-18.3-6.2-27.1-2c-4.1,2-7.6,5.1-11.4,7.5s-8.4,4.3-12.9,3.6c-0.8,2.2,1.1,4.3,2.9,5.8c3.3,2.8,7.1,5.6,11.4,5.7
	c1.7,0,3.5-0.3,5,0.4c1,0.6,1.9,1.4,2.5,2.4c2.1,2.8,3.9,5.8,5.3,8.9c0.4,1.4,1.3,2.6,2.4,3.5c2,1.3,4.6,0.2,7,0.1
	c3.7-0.1,7,2.2,9.7,4.7s5.3,5.3,8.8,6.6c2.6,1,7.7,0.9,9-2.1c0.5-1.2-0.5-3.6-0.3-5.1C891,445.8,891.8,443.6,892.9,441.6z"/>
<path className="st34" d="M731.9,770c-1.9,1.5-4.2,2.4-6.6,2.3l-446.8-1.9c-2.4-2.9-3.5-6.7-3.1-10.5l44.1-361.2l27.7-0.3
	c4.8,0,9,3.1,10.2,7.7l5.2,19.1c1.3,4.6,5.5,7.8,10.3,7.7l110.5-2.7c5.7-0.1,10.2-4.8,10.2-10.5v-12.6c0-5.7,4.6-10.4,10.3-10.5
	l153.1-1.6c5.1,0,9.4,3.5,10.4,8.5l67.7,354l0.4,2.3C736.3,763.7,734.9,767.6,731.9,770z"/>
<path className="st43" d="M652.1,400.2L499,401.8c-5.7,0.1-10.3,4.7-10.3,10.5v12.6c0,5.7-4.5,10.3-10.2,10.4L368,438
	c-4.8,0.1-9.1-3.1-10.4-7.7l-5.2-19.1c-1.2-4.6-5.4-7.8-10.2-7.7l-147.5,1.6c-5.8,0.1-10.4,4.8-10.3,10.6c0,0.6,0.1,1.1,0.1,1.6
	l59.4,349.4c0.9,5,5.2,8.7,10.3,8.7l466.1,2c5.8,0,10.5-4.6,10.5-10.4c0-0.7-0.1-1.3-0.2-2l-68.1-356.3
	C661.5,403.7,657.1,400.1,652.1,400.2z"/>
<path className="st3" d="M867.7,160.9l-0.8,8.9l0.6,15.7l-1.7,26.5c0,0-0.2,11.6-6.8,17.1L842.2,255l-0.1,0l-6.3,3.1l-9.6,1l-5-12.1
	l3.3-13.3l1.8-2.5l0.5-0.6c2-2.2,9.7-10.2,15.8-12.7c0,0,4.1-3,3.4-7.7c-0.7-4.7,5.5-29.7,5.5-29.7s4-16.5,3.1-18.1
	c-0.9-1.6-0.2-38.2,13.6-38.7S867.7,160.9,867.7,160.9z"/>
<ellipse className="st0" cx="151.4" cy="700.9" rx="16.2" ry="2.2"/>
<ellipse className="st0" cx="89.3" cy="707.2" rx="16.2" ry="2.2"/>
<ellipse className="st0" cx="16.2" cy="698.7" rx="16.2" ry="2.2"/>
<ellipse className="st0" cx="114.2" cy="725.1" rx="11.5" ry="1.6"/>
<ellipse className="st0" cx="49.8" cy="723.5" rx="11.5" ry="1.6"/>
<path className="st30" d="M89,706.7c0,0,22.7-74.5-3.6-104.4c-19.7-22.3-42-19.7-52-16.9c-5.2,1.4-9.6,5-11.9,9.9
	c-3.5,7.5-2.9,19.8,21.8,34.1c41.3,23.9,43.9,56.7,43.9,56.7L89,706.7z"/>
<path className="st44" d="M37,596c0,0,67,21,52,110.7"/>
<path className="st44" d="M76.1,603.5c0,0-9.2,6.2-6.3,15.6"/>
<path className="st44" d="M43.7,609c0,0,5.6-5.7,12.5-2.6"/>
<path className="st44" d="M70.2,637.9c0,0,9.9-5,12.5,1.3"/>
<path className="st44" d="M94.7,648.4c0,0-7.4-0.6-7.6,3"/>
<path className="st30" d="M89.9,707.3c0,0-26.6-54.2-33.9-53c-3.5,0.6-5.1,4-5.8,7.4c-0.9,4.4-0.4,9,1.4,13.2
	C55.4,683.6,65.5,700,89.9,707.3z"/>
<path className="st44" d="M56.2,664.6c0,0,27.9,40.5,33.3,42.3"/>
<line className="st44" x1="53.6" y1="670.9" x2="60.1" y2="670.9"/>
<line className="st44" x1="61.4" y1="685.7" x2="71.6" y2="686.2"/>
<line className="st44" x1="67.6" y1="673.9" x2="66.5" y2="679.2"/>
<line className="st44" x1="78.5" y1="690.1" x2="78.3" y2="694.9"/>
<path className="st30" d="M89.1,707.3c0,0,26.6-54.2,33.9-53c3.5,0.6,5.1,4,5.8,7.4c0.9,4.4,0.4,9-1.5,13.2
	C123.6,683.6,113.5,700,89.1,707.3z"/>
<path className="st44" d="M122.9,664.6c0,0-28,40.5-33.3,42.3"/>
<line className="st44" x1="125.4" y1="670.9" x2="118.9" y2="670.9"/>
<line className="st44" x1="117.6" y1="685.7" x2="107.4" y2="686.2"/>
<line className="st44" x1="111.4" y1="673.9" x2="112.5" y2="679.2"/>
<line className="st44" x1="100.5" y1="690.1" x2="100.7" y2="694.9"/>
<path className="st30" d="M43.4,719.9c-0.7-0.6-1.3-1.4-1.5-2.3c-0.3-0.9,0.2-1.9,1.1-2.3c1-0.4,2,0.3,2.8,1s1.7,1.4,2.7,1.3
	c-1.1-1-1.6-2.5-1.3-3.9c0-0.3,0.2-0.6,0.3-0.8c0.5-0.6,1.5-0.3,2.2,0.1c2,1.4,2.6,4.2,2.6,6.8c0.1-0.9,0.1-1.9,0-2.8
	c-0.1-0.9,0.4-1.9,1.1-2.4c0.5-0.3,1-0.4,1.6-0.4c0.9-0.1,1.9,0.1,2.6,0.7c0.7,1,0.7,2.3-0.1,3.2c-0.8,0.9-1.7,1.6-2.7,2.1
	c-0.8,0.5-1.4,1.1-1.9,1.8c-0.1,0.1-0.1,0.2-0.1,0.3H47C45.7,721.7,44.5,720.9,43.4,719.9z"/>
<path className="st30" d="M144.9,698.1c-0.7-0.6-1.3-1.4-1.5-2.3c-0.3-0.9,0.2-1.9,1.1-2.3c1-0.4,2,0.3,2.8,1c0.8,0.7,1.7,1.5,2.7,1.3
	c-1.1-1-1.6-2.4-1.3-3.9c0-0.3,0.2-0.6,0.4-0.8c0.5-0.6,1.5-0.3,2.2,0.1c2.1,1.5,2.6,4.2,2.6,6.8c0.1-0.9,0.1-1.9,0-2.8
	c-0.1-0.9,0.3-1.9,1-2.5c0.5-0.3,1-0.4,1.6-0.4c0.9-0.1,1.9,0.1,2.6,0.7c0.7,1,0.7,2.3-0.1,3.2c-0.8,0.9-1.7,1.6-2.7,2.1
	c-0.8,0.5-1.4,1.1-1.9,1.8c-0.1,0.1-0.1,0.2-0.1,0.3h-5.7C147.1,699.9,145.9,699.1,144.9,698.1z"/>
<path className="st30" d="M111,719.9c-0.7-0.6-1.3-1.4-1.5-2.3c-0.3-0.9,0.2-1.9,1.1-2.3c1-0.4,2,0.3,2.8,1s1.7,1.5,2.7,1.3
	c-1.1-1-1.6-2.5-1.3-3.9c0-0.3,0.2-0.6,0.4-0.8c0.5-0.6,1.5-0.3,2.2,0.1c2.1,1.4,2.6,4.2,2.6,6.8c0.1-0.9,0.1-1.9,0-2.8
	c-0.1-0.9,0.3-1.9,1.1-2.5c0.5-0.3,1-0.4,1.6-0.4c0.9-0.1,1.9,0.1,2.6,0.7c0.7,1,0.7,2.3-0.1,3.2c-0.8,0.9-1.7,1.6-2.7,2.1
	c-0.8,0.5-1.4,1.1-1.9,1.8c-0.1,0.1-0.1,0.2-0.1,0.3h-5.8C113.3,721.7,112.1,720.9,111,719.9z"/>
<path className="st30" d="M15.1,675.8c0,0-2.2,2.8,1,7.1s5.8,7.9,4.7,10.6c0,0-4.8-8-8.7-8.1S10.9,680.6,15.1,675.8z"/>
<path className="st34" d="M15.1,675.8c-0.2,0.3-0.3,0.6-0.4,0.9c-3.8,4.5-5.8,8.6-2.2,8.8c3.4,0.1,7.5,6.2,8.5,7.7
	c0,0.1-0.1,0.2-0.1,0.3c0,0-4.8-8-8.7-8.1S10.9,680.6,15.1,675.8z"/>
<path className="st45" d="M11.1,679.4c0,1,0.1,1.8,0.3,1.8s0.3-0.8,0.3-1.8s-0.1-0.5-0.3-0.5S11.1,678.4,11.1,679.4z"/>
<path className="st45" d="M9.7,680.6c0.9,0.5,1.6,0.8,1.7,0.6s-0.6-0.6-1.5-1.1s-0.5-0.1-0.6,0S8.8,680.2,9.7,680.6z"/>
<path className="st30" d="M26.6,675.8c0,0,2.2,2.8-1,7.1s-5.8,7.9-4.7,10.6c0,0,4.8-8,8.7-8.1S30.9,680.6,26.6,675.8z"/>
<path className="st34" d="M26.6,675.8c0.2,0.3,0.3,0.6,0.5,0.9c3.8,4.5,5.8,8.6,2.2,8.8c-3.4,0.1-7.5,6.2-8.5,7.7c0,0.1,0.1,0.2,0.1,0.3
	c0,0,4.8-8,8.7-8.1S30.9,680.6,26.6,675.8z"/>
<path className="st45" d="M30.7,679.4c0,1-0.1,1.8-0.3,1.8s-0.3-0.8-0.3-1.8s0.1-0.5,0.3-0.5S30.7,678.4,30.7,679.4z"/>
<path className="st45" d="M32,680.6c-0.9,0.5-1.7,0.8-1.7,0.6s0.6-0.6,1.5-1.1s0.5-0.1,0.6,0S32.9,680.2,32,680.6z"/>
<path className="st46" d="M30,693.2c0,0-6.1-0.2-7.9-1.5s-9.3-2.9-9.8-0.8s-9.1,10.4-2.3,10.5s15.9-1.1,17.8-2.2S30,693.2,30,693.2z"/>
<path className="st47" d="M9.9,700.6c6.9,0.1,15.9-1.1,17.8-2.2c1.4-0.8,1.9-3.9,2.1-5.3H30c0,0-0.4,4.9-2.2,6s-10.9,2.2-17.8,2.2
	c-2,0-2.7-0.7-2.6-1.8C7.6,700.2,8.5,700.6,9.9,700.6z"/>
<circle className="st0" cx="33.9" cy="126.7" r="21.6"/>
<circle className="st0" cx="1074" cy="299.6" r="21.6"/>
<circle className="st0" cx="685.2" cy="58" r="21.6"/>
<circle className="st0" cx="77.2" cy="246" r="36.2"/>
<path className="st36" d="M430.2,588.6l-1.3-1.3c-0.6-0.5-0.6-1.4-0.1-1.9c0,0,0,0,0.1-0.1l11.2-11.2c0.5-0.6,1.4-0.6,1.9-0.1
	c0,0,0,0,0.1,0.1l11.2,11.2c0.6,0.5,0.6,1.4,0,2c0,0,0,0,0,0l-1.3,1.3c-0.5,0.6-1.4,0.6-2,0c0,0,0,0,0,0l-6.6-7v16.6
	c0,0.8-0.6,1.4-1.4,1.4c0,0,0,0,0,0h-1.9c-0.8,0-1.4-0.6-1.4-1.4l0,0v-16.6l-6.6,7C431.7,589.2,430.8,589.2,430.2,588.6
	C430.2,588.7,430.2,588.7,430.2,588.6z"/>
<path className="st36" d="M441.1,563.9c12.6,0,22.8,10.2,22.8,22.8c0,12.6-10.2,22.8-22.8,22.8c-12.6,0-22.8-10.2-22.8-22.8l0,0
	C418.4,574.1,428.5,563.9,441.1,563.9 M441.1,560.9c-14.2,0-25.8,11.5-25.8,25.8c0,14.2,11.5,25.8,25.8,25.8
	c14.2,0,25.8-11.5,25.8-25.8l0,0C466.9,572.5,455.4,560.9,441.1,560.9z"/>
</svg>
